<svg width="900px" height="777px"
 viewBox="0.00 0.00 307.00 265.00" xmlns="http://www.w3.org/2000/svg" xmlns:xlink="http://www.w3.org/1999/xlink">
<g id="graph0" class="graph" transform="scale(1.0 1.0) rotate(0) translate(4 261)">
<title>example3</title>
<polygon fill="#ffffff" stroke="transparent" points="-4,4 -4,-261 303,-261 303,4 -4,4"/>
<!-- node0 -->
<g id="node1" class="node">
<title>node0</title>
<polygon fill="none" stroke="#000000" points="0,-66.5 0,-190.5 54,-190.5 54,-66.5 0,-66.5"/>
<text text-anchor="middle" x="27" y="-173.9" font-family="Times,serif" font-size="14.00" fill="#000000"> </text>
<polyline fill="none" stroke="#000000" points="0,-165.7 54,-165.7 "/>
<text text-anchor="middle" x="27" y="-149.1" font-family="Times,serif" font-size="14.00" fill="#000000"> </text>
<polyline fill="none" stroke="#000000" points="0,-140.9 54,-140.9 "/>
<text text-anchor="middle" x="27" y="-124.3" font-family="Times,serif" font-size="14.00" fill="#000000"> </text>
<polyline fill="none" stroke="#000000" points="0,-116.1 54,-116.1 "/>
<text text-anchor="middle" x="27" y="-99.5" font-family="Times,serif" font-size="14.00" fill="#000000"> </text>
<polyline fill="none" stroke="#000000" points="0,-91.3 54,-91.3 "/>
<text text-anchor="middle" x="27" y="-74.7" font-family="Times,serif" font-size="14.00" fill="#000000"> </text>
</g>
<!-- node1 -->
<g id="node2" class="node">
<title>node1</title>
<polygon fill="none" stroke="#000000" points="90,-220.5 90,-256.5 176.5,-256.5 176.5,-220.5 90,-220.5"/>
<text text-anchor="middle" x="105" y="-234.4" font-family="Times,serif" font-size="14.00" fill="#000000">n4</text>
<polyline fill="none" stroke="#000000" points="120,-220.7 120,-256.5 "/>
<text text-anchor="middle" x="138.5" y="-234.4" font-family="Times,serif" font-size="14.00" fill="#000000">719</text>
<polyline fill="none" stroke="#000000" points="157,-220.7 157,-256.5 "/>
<text text-anchor="middle" x="166.75" y="-234.4" font-family="Times,serif" font-size="14.00" fill="#000000"> </text>
</g>
<!-- node0&#45;&gt;node1 -->
<g id="edge1" class="edge">
<title>node0:f0&#45;&gt;node1:s</title>
<path fill="none" stroke="#000000" d="M54,-178.5C75.7051,-178.5 70.5818,-201.8023 90,-211.5 96.8611,-214.9265 117.9278,-212.5916 129.8315,-214.6948"/>
<polygon fill="#000000" stroke="#000000" points="128.0306,-217.7044 138.25,-220.5 132.0045,-211.9417 128.0306,-217.7044"/>
</g>
<!-- node2 -->
<g id="node3" class="node">
<title>node2</title>
<polygon fill="none" stroke="#000000" points="90.3927,-165.5 90.3927,-201.5 176.1073,-201.5 176.1073,-165.5 90.3927,-165.5"/>
<text text-anchor="middle" x="105" y="-179.4" font-family="Times,serif" font-size="14.00" fill="#000000">a1</text>
<polyline fill="none" stroke="#000000" points="119.6073,-165.7 119.6073,-201.5 "/>
<text text-anchor="middle" x="138.1073" y="-179.4" font-family="Times,serif" font-size="14.00" fill="#000000">805</text>
<polyline fill="none" stroke="#000000" points="156.6073,-165.7 156.6073,-201.5 "/>
<text text-anchor="middle" x="166.3573" y="-179.4" font-family="Times,serif" font-size="14.00" fill="#000000"> </text>
</g>
<!-- node0&#45;&gt;node2 -->
<g id="edge2" class="edge">
<title>node0:f1&#45;&gt;node2:w</title>
<path fill="none" stroke="#000000" d="M54,-153.5C70.8283,-153.5 70.5047,-172.9257 80.6331,-180.5138"/>
<polygon fill="#000000" stroke="#000000" points="79.6619,-183.877 90.25,-183.5 81.7377,-177.1919 79.6619,-183.877"/>
</g>
<!-- node3 -->
<g id="node4" class="node">
<title>node3</title>
<polygon fill="none" stroke="#000000" points="91.5547,-110.5 91.5547,-146.5 174.9453,-146.5 174.9453,-110.5 91.5547,-110.5"/>
<text text-anchor="middle" x="105" y="-124.4" font-family="Times,serif" font-size="14.00" fill="#000000">i9</text>
<polyline fill="none" stroke="#000000" points="118.4453,-110.7 118.4453,-146.5 "/>
<text text-anchor="middle" x="136.9453" y="-124.4" font-family="Times,serif" font-size="14.00" fill="#000000">718</text>
<polyline fill="none" stroke="#000000" points="155.4453,-110.7 155.4453,-146.5 "/>
<text text-anchor="middle" x="165.1953" y="-124.4" font-family="Times,serif" font-size="14.00" fill="#000000"> </text>
</g>
<!-- node0&#45;&gt;node3 -->
<g id="edge3" class="edge">
<title>node0:f2&#45;&gt;node3:w</title>
<path fill="none" stroke="#000000" d="M54,-128.5C66.546,-128.5 71.9614,-128.5 81.0535,-128.5"/>
<polygon fill="#000000" stroke="#000000" points="81.25,-132.0001 91.25,-128.5 81.25,-125.0001 81.25,-132.0001"/>
</g>
<!-- node4 -->
<g id="node5" class="node">
<title>node4</title>
<polygon fill="none" stroke="#000000" points="90.3927,-55.5 90.3927,-91.5 176.1073,-91.5 176.1073,-55.5 90.3927,-55.5"/>
<text text-anchor="middle" x="105" y="-69.4" font-family="Times,serif" font-size="14.00" fill="#000000">e5</text>
<polyline fill="none" stroke="#000000" points="119.6073,-55.7 119.6073,-91.5 "/>
<text text-anchor="middle" x="138.1073" y="-69.4" font-family="Times,serif" font-size="14.00" fill="#000000">989</text>
<polyline fill="none" stroke="#000000" points="156.6073,-55.7 156.6073,-91.5 "/>
<text text-anchor="middle" x="166.3573" y="-69.4" font-family="Times,serif" font-size="14.00" fill="#000000"> </text>
</g>
<!-- node0&#45;&gt;node4 -->
<g id="edge4" class="edge">
<title>node0:f3&#45;&gt;node4:w</title>
<path fill="none" stroke="#000000" d="M54,-103.5C70.8283,-103.5 70.5047,-84.0743 80.6331,-76.4862"/>
<polygon fill="#000000" stroke="#000000" points="81.7377,-79.8081 90.25,-73.5 79.6619,-73.123 81.7377,-79.8081"/>
</g>
<!-- node5 -->
<g id="node6" class="node">
<title>node5</title>
<polygon fill="none" stroke="#000000" points="91.5547,-.5 91.5547,-36.5 174.9453,-36.5 174.9453,-.5 91.5547,-.5"/>
<text text-anchor="middle" x="105" y="-14.4" font-family="Times,serif" font-size="14.00" fill="#000000">t2</text>
<polyline fill="none" stroke="#000000" points="118.4453,-.7 118.4453,-36.5 "/>
<text text-anchor="middle" x="136.9453" y="-14.4" font-family="Times,serif" font-size="14.00" fill="#000000">959</text>
<polyline fill="none" stroke="#000000" points="155.4453,-.7 155.4453,-36.5 "/>
<text text-anchor="middle" x="165.1953" y="-14.4" font-family="Times,serif" font-size="14.00" fill="#000000"> </text>
</g>
<!-- node0&#45;&gt;node5 -->
<g id="edge5" class="edge">
<title>node0:f4&#45;&gt;node5:n</title>
<path fill="none" stroke="#000000" d="M54,-78.5C75.7051,-78.5 70.6003,-55.2347 90,-45.5 96.7173,-42.1293 117.3481,-44.3335 129.0056,-42.2238"/>
<polygon fill="#000000" stroke="#000000" points="131.0317,-45.0781 137.25,-36.5 127.0395,-39.328 131.0317,-45.0781"/>
</g>
<!-- node6 -->
<g id="node7" class="node">
<title>node6</title>
<polygon fill="none" stroke="#000000" points="212.5,-147.5 212.5,-183.5 299,-183.5 299,-147.5 212.5,-147.5"/>
<text text-anchor="middle" x="227.5" y="-161.4" font-family="Times,serif" font-size="14.00" fill="#000000">o1</text>
<polyline fill="none" stroke="#000000" points="242.5,-147.7 242.5,-183.5 "/>
<text text-anchor="middle" x="261" y="-161.4" font-family="Times,serif" font-size="14.00" fill="#000000">794</text>
<polyline fill="none" stroke="#000000" points="279.5,-147.7 279.5,-183.5 "/>
<text text-anchor="middle" x="289.25" y="-161.4" font-family="Times,serif" font-size="14.00" fill="#000000"> </text>
</g>
<!-- node2&#45;&gt;node6 -->
<g id="edge6" class="edge">
<title>node2:p&#45;&gt;node6:nw</title>
<path fill="none" stroke="#000000" d="M176.25,-183.5C188.1632,-183.5 196.0773,-189.6863 203.9841,-188.4297"/>
<polygon fill="#000000" stroke="#000000" points="205.7494,-191.4525 212.75,-183.5 202.3181,-185.3512 205.7494,-191.4525"/>
</g>
<!-- node7 -->
<g id="node8" class="node">
<title>node7</title>
<polygon fill="none" stroke="#000000" points="213.2777,-73.5 213.2777,-109.5 298.2223,-109.5 298.2223,-73.5 213.2777,-73.5"/>
<text text-anchor="middle" x="227.5" y="-87.4" font-family="Times,serif" font-size="14.00" fill="#000000">s7</text>
<polyline fill="none" stroke="#000000" points="241.7223,-73.7 241.7223,-109.5 "/>
<text text-anchor="middle" x="260.2223" y="-87.4" font-family="Times,serif" font-size="14.00" fill="#000000">659</text>
<polyline fill="none" stroke="#000000" points="278.7223,-73.7 278.7223,-109.5 "/>
<text text-anchor="middle" x="288.4723" y="-87.4" font-family="Times,serif" font-size="14.00" fill="#000000"> </text>
</g>
<!-- node4&#45;&gt;node7 -->
<g id="edge7" class="edge">
<title>node4:p&#45;&gt;node7:sw</title>
<path fill="none" stroke="#000000" d="M176.25,-73.5C188.6209,-73.5 196.793,-66.7323 205.003,-68.2656"/>
<polygon fill="#000000" stroke="#000000" points="203.3718,-71.3682 213.75,-73.5 206.9664,-65.3616 203.3718,-71.3682"/>
</g>
</g>
</svg>
