<svg width="700px" height="778px"
 viewBox="0.00 0.00 233.59 260.00" xmlns="http://www.w3.org/2000/svg" xmlns:xlink="http://www.w3.org/1999/xlink">
<g id="graph0" class="graph" transform="scale(1.0 1.0) rotate(0) translate(4 256)">
<title>%0</title>
<defs>
<linearGradient id="l_1" gradientUnits="userSpaceOnUse" x1="112.7929" y1="4" x2="112.7929" y2="-256" >
<stop offset="0" style="stop-color:#ffffff;stop-opacity:1.;"/>
<stop offset="1" style="stop-color:#888888;stop-opacity:1.;"/>
</linearGradient>
</defs>
<polygon fill="url(#l_1)" stroke="transparent" points="-4,4 -4,-256 229.5857,-256 229.5857,4 -4,4"/>
<!-- white -->
<g id="node1" class="node">
<title>white</title>
<ellipse fill="#ffffff" stroke="#ffffff" stroke-width="4" cx="104.2669" cy="-234" rx="32.4808" ry="18"/>
<text text-anchor="middle" x="104.2669" y="-229.8" font-family="Times,serif" font-size="14.00" fill="#000000">white</text>
</g>
<!-- cyan -->
<g id="node2" class="node">
<title>cyan</title>
<ellipse fill="#ffffff" stroke="#00ffff" stroke-width="4" cx="29.2669" cy="-162" rx="29.0356" ry="18"/>
<text text-anchor="middle" x="29.2669" y="-157.8" font-family="Times,serif" font-size="14.00" fill="#000000">cyan</text>
</g>
<!-- white&#45;&#45;cyan -->
<g id="edge1" class="edge">
<title>white&#45;&#45;cyan</title>
<path fill="none" stroke="#000000" d="M87.993,-218.3771C75.3268,-206.2175 57.8434,-189.4334 45.2514,-177.3451"/>
</g>
<!-- yellow -->
<g id="node5" class="node">
<title>yellow</title>
<ellipse fill="#ffffff" stroke="#ffff00" stroke-width="4" cx="188.2669" cy="-162" rx="37.1386" ry="18"/>
<text text-anchor="middle" x="188.2669" y="-157.8" font-family="Times,serif" font-size="14.00" fill="#000000">yellow</text>
</g>
<!-- white&#45;&#45;yellow -->
<g id="edge2" class="edge">
<title>white&#45;&#45;yellow</title>
<path fill="none" stroke="#000000" d="M122.0811,-218.7307C136.1436,-206.6771 155.6934,-189.9201 169.8976,-177.7451"/>
</g>
<!-- pink -->
<g id="node7" class="node">
<title>pink</title>
<ellipse fill="#ffffff" stroke="#ffc0cb" stroke-width="4" cx="104.2669" cy="-162" rx="28.4127" ry="18"/>
<text text-anchor="middle" x="104.2669" y="-157.8" font-family="Times,serif" font-size="14.00" fill="#000000">pink</text>
</g>
<!-- white&#45;&#45;pink -->
<g id="edge3" class="edge">
<title>white&#45;&#45;pink</title>
<path fill="none" stroke="#000000" d="M104.2669,-215.8314C104.2669,-205 104.2669,-191.2876 104.2669,-180.4133"/>
</g>
<!-- blue -->
<g id="node3" class="node">
<title>blue</title>
<ellipse fill="#ffffff" stroke="#0000ff" stroke-width="4" cx="31.2669" cy="-90" rx="27.8286" ry="18"/>
<text text-anchor="middle" x="31.2669" y="-85.8" font-family="Times,serif" font-size="14.00" fill="#000000">blue</text>
</g>
<!-- cyan&#45;&#45;blue -->
<g id="edge4" class="edge">
<title>cyan&#45;&#45;blue</title>
<path fill="none" stroke="#000000" d="M29.7716,-143.8314C30.0724,-133 30.4533,-119.2876 30.7554,-108.4133"/>
</g>
<!-- green -->
<g id="node4" class="node">
<title>green</title>
<ellipse fill="#ffffff" stroke="#00ff00" stroke-width="4" cx="109.2669" cy="-90" rx="32.4634" ry="18"/>
<text text-anchor="middle" x="109.2669" y="-85.8" font-family="Times,serif" font-size="14.00" fill="#000000">green</text>
</g>
<!-- cyan&#45;&#45;green -->
<g id="edge5" class="edge">
<title>cyan&#45;&#45;green</title>
<path fill="none" stroke="#000000" d="M45.8429,-147.0816C59.3898,-134.8893 78.4712,-117.7161 92.1601,-105.3961"/>
</g>
<!-- black -->
<g id="node8" class="node">
<title>black</title>
<ellipse fill="#ffffff" stroke="#000000" stroke-width="4" cx="109.2669" cy="-18" rx="31.9012" ry="18"/>
<text text-anchor="middle" x="109.2669" y="-13.8" font-family="Times,serif" font-size="14.00" fill="#000000">black</text>
</g>
<!-- blue&#45;&#45;black -->
<g id="edge6" class="edge">
<title>blue&#45;&#45;black</title>
<path fill="none" stroke="#000000" d="M47.4285,-75.0816C60.6368,-62.8893 79.2411,-45.7161 92.5878,-33.3961"/>
</g>
<!-- green&#45;&#45;black -->
<g id="edge7" class="edge">
<title>green&#45;&#45;black</title>
<path fill="none" stroke="#000000" d="M109.2669,-71.8314C109.2669,-61 109.2669,-47.2876 109.2669,-36.4133"/>
</g>
<!-- yellow&#45;&#45;green -->
<g id="edge8" class="edge">
<title>yellow&#45;&#45;green</title>
<path fill="none" stroke="#000000" d="M170.7342,-146.0209C157.4608,-133.9235 139.3347,-117.4036 126.2083,-105.4403"/>
</g>
<!-- red -->
<g id="node6" class="node">
<title>red</title>
<ellipse fill="#ffffff" stroke="#ff0000" stroke-width="4" cx="186.2669" cy="-90" rx="27" ry="18"/>
<text text-anchor="middle" x="186.2669" y="-85.8" font-family="Times,serif" font-size="14.00" fill="#000000">red</text>
</g>
<!-- yellow&#45;&#45;red -->
<g id="edge9" class="edge">
<title>yellow&#45;&#45;red</title>
<path fill="none" stroke="#000000" d="M187.7622,-143.8314C187.4613,-133 187.0804,-119.2876 186.7784,-108.4133"/>
</g>
<!-- red&#45;&#45;black -->
<g id="edge10" class="edge">
<title>red&#45;&#45;black</title>
<path fill="none" stroke="#000000" d="M170.3124,-75.0816C157.3616,-62.9717 139.1556,-45.9479 126,-33.6465"/>
</g>
<!-- pink&#45;&#45;blue -->
<g id="edge12" class="edge">
<title>pink&#45;&#45;blue</title>
<path fill="none" stroke="#000000" d="M88.7855,-146.7307C76.3971,-134.512 59.1085,-117.4602 46.726,-105.2473"/>
</g>
<!-- pink&#45;&#45;red -->
<g id="edge11" class="edge">
<title>pink&#45;&#45;red</title>
<path fill="none" stroke="#000000" d="M120.8608,-147.4297C135.0874,-134.938 155.4781,-117.034 169.6976,-104.5486"/>
</g>
</g>
</svg>
