<svg width="700px" height="778px"
 viewBox="0.00 0.00 233.59 260.00" xmlns="http://www.w3.org/2000/svg" xmlns:xlink="http://www.w3.org/1999/xlink">
<g id="graph0" class="graph" transform="scale(1.0 1.0) rotate(0) translate(4 256)">
<title>%0</title>
<polygon fill="#ffffff" stroke="transparent" points="-4,4 -4,-256 229.5857,-256 229.5857,4 -4,4"/>
<!-- white -->
<g id="node1" class="node">
<title>white</title>
<ellipse fill="none" stroke="#000000" cx="121.3188" cy="-234" rx="32.4808" ry="18"/>
<text text-anchor="middle" x="121.3188" y="-229.8" font-family="Times,serif" font-size="14.00" fill="#000000">white</text>
</g>
<!-- cyan -->
<g id="node2" class="node">
<title>cyan</title>
<ellipse fill="none" stroke="#000000" cx="196.3188" cy="-162" rx="29.0356" ry="18"/>
<text text-anchor="middle" x="196.3188" y="-157.8" font-family="Times,serif" font-size="14.00" fill="#000000">cyan</text>
</g>
<!-- white&#45;&#45;cyan -->
<g id="edge1" class="edge">
<title>white&#45;&#45;cyan</title>
<path fill="none" stroke="#000000" d="M137.5927,-218.3771C150.2589,-206.2175 167.7424,-189.4334 180.3344,-177.3451"/>
</g>
<!-- yellow -->
<g id="node3" class="node">
<title>yellow</title>
<ellipse fill="none" stroke="#000000" cx="37.3188" cy="-162" rx="37.1386" ry="18"/>
<text text-anchor="middle" x="37.3188" y="-157.8" font-family="Times,serif" font-size="14.00" fill="#000000">yellow</text>
</g>
<!-- white&#45;&#45;yellow -->
<g id="edge2" class="edge">
<title>white&#45;&#45;yellow</title>
<path fill="none" stroke="#000000" d="M103.5046,-218.7307C89.4422,-206.6771 69.8924,-189.9201 55.6881,-177.7451"/>
</g>
<!-- pink -->
<g id="node4" class="node">
<title>pink</title>
<ellipse fill="none" stroke="#000000" cx="121.3188" cy="-162" rx="28.4127" ry="18"/>
<text text-anchor="middle" x="121.3188" y="-157.8" font-family="Times,serif" font-size="14.00" fill="#000000">pink</text>
</g>
<!-- white&#45;&#45;pink -->
<g id="edge3" class="edge">
<title>white&#45;&#45;pink</title>
<path fill="none" stroke="#000000" d="M121.3188,-215.8314C121.3188,-205 121.3188,-191.2876 121.3188,-180.4133"/>
</g>
<!-- green -->
<g id="node6" class="node">
<title>green</title>
<ellipse fill="none" stroke="#000000" cx="116.3188" cy="-90" rx="32.4634" ry="18"/>
<text text-anchor="middle" x="116.3188" y="-85.8" font-family="Times,serif" font-size="14.00" fill="#000000">green</text>
</g>
<!-- cyan&#45;&#45;green -->
<g id="edge5" class="edge">
<title>cyan&#45;&#45;green</title>
<path fill="none" stroke="#000000" d="M179.7428,-147.0816C166.1959,-134.8893 147.1145,-117.7161 133.4256,-105.3961"/>
</g>
<!-- blue -->
<g id="node7" class="node">
<title>blue</title>
<ellipse fill="none" stroke="#000000" cx="194.3188" cy="-90" rx="27.8286" ry="18"/>
<text text-anchor="middle" x="194.3188" y="-85.8" font-family="Times,serif" font-size="14.00" fill="#000000">blue</text>
</g>
<!-- cyan&#45;&#45;blue -->
<g id="edge4" class="edge">
<title>cyan&#45;&#45;blue</title>
<path fill="none" stroke="#000000" d="M195.8142,-143.8314C195.5133,-133 195.1324,-119.2876 194.8303,-108.4133"/>
</g>
<!-- red -->
<g id="node5" class="node">
<title>red</title>
<ellipse fill="none" stroke="#000000" cx="39.3188" cy="-90" rx="27" ry="18"/>
<text text-anchor="middle" x="39.3188" y="-85.8" font-family="Times,serif" font-size="14.00" fill="#000000">red</text>
</g>
<!-- yellow&#45;&#45;red -->
<g id="edge9" class="edge">
<title>yellow&#45;&#45;red</title>
<path fill="none" stroke="#000000" d="M37.8235,-143.8314C38.1244,-133 38.5053,-119.2876 38.8074,-108.4133"/>
</g>
<!-- yellow&#45;&#45;green -->
<g id="edge8" class="edge">
<title>yellow&#45;&#45;green</title>
<path fill="none" stroke="#000000" d="M54.8515,-146.0209C68.125,-133.9235 86.251,-117.4036 99.3774,-105.4403"/>
</g>
<!-- pink&#45;&#45;red -->
<g id="edge11" class="edge">
<title>pink&#45;&#45;red</title>
<path fill="none" stroke="#000000" d="M104.7249,-147.4297C90.4983,-134.938 70.1076,-117.034 55.8881,-104.5486"/>
</g>
<!-- pink&#45;&#45;blue -->
<g id="edge12" class="edge">
<title>pink&#45;&#45;blue</title>
<path fill="none" stroke="#000000" d="M136.8003,-146.7307C149.1886,-134.512 166.4773,-117.4602 178.8597,-105.2473"/>
</g>
<!-- black -->
<g id="node8" class="node">
<title>black</title>
<ellipse fill="none" stroke="#000000" cx="116.3188" cy="-18" rx="31.9012" ry="18"/>
<text text-anchor="middle" x="116.3188" y="-13.8" font-family="Times,serif" font-size="14.00" fill="#000000">black</text>
</g>
<!-- red&#45;&#45;black -->
<g id="edge10" class="edge">
<title>red&#45;&#45;black</title>
<path fill="none" stroke="#000000" d="M55.2733,-75.0816C68.2241,-62.9717 86.4301,-45.9479 99.5858,-33.6465"/>
</g>
<!-- green&#45;&#45;black -->
<g id="edge7" class="edge">
<title>green&#45;&#45;black</title>
<path fill="none" stroke="#000000" d="M116.3188,-71.8314C116.3188,-61 116.3188,-47.2876 116.3188,-36.4133"/>
</g>
<!-- blue&#45;&#45;black -->
<g id="edge6" class="edge">
<title>blue&#45;&#45;black</title>
<path fill="none" stroke="#000000" d="M178.1572,-75.0816C164.949,-62.8893 146.3446,-45.7161 132.998,-33.3961"/>
</g>
</g>
</svg>
